<?xml version="1.0" encoding="utf-8"?>
<!-- Generator: Adobe Illustrator 19.0.0, SVG Export Plug-In . SVG Version: 6.00 Build 0)  -->
<svg version="1.1" id="Layer_1" xmlns="http://www.w3.org/2000/svg" xmlns:xlink="http://www.w3.org/1999/xlink" x="0px" y="0px"
	 viewBox="0 0 300 300" style="enable-background:new 0 0 300 300;" xml:space="preserve">
<style type="text/css">
	.st0{fill-rule:evenodd;clip-rule:evenodd;fill:#2E3192;}
	.st1{fill-rule:evenodd;clip-rule:evenodd;fill:#FFFFFF;}
	.st2{fill-rule:evenodd;clip-rule:evenodd;fill:#ED1C24;}
	.st3{fill:#FFFFFF;}
</style>
<path class="st0" d="M146.4,222.6c41.8,0,75.6-33.9,75.6-75.6c0-41.8-33.9-75.6-75.6-75.6c-41.8,0-75.6,33.9-75.6,75.6
	C70.8,188.7,104.7,222.6,146.4,222.6L146.4,222.6z"/>
<path class="st1" d="M145.6,175c-1.6-0.3-6-4.3-6-4.3l-1.4,1.3c0,0,3.2,3.7,5.1,6.3L145.6,175L145.6,175z"/>
<path class="st1" d="M125,190.4c0.5,0,0.9-0.4,0.9-0.9c0-0.5-0.4-0.9-0.9-0.9c-0.5,0-0.9,0.4-0.9,0.9
	C124.1,190,124.5,190.4,125,190.4L125,190.4z"/>
<path class="st1" d="M125.8,197.3c0.4,0,0.7-0.3,0.7-0.7c0-0.4-0.3-0.7-0.7-0.7c-0.4,0-0.7,0.3-0.7,0.7
	C125.1,197,125.4,197.3,125.8,197.3L125.8,197.3z"/>
<path class="st1" d="M157.1,190.7c0.3,0,0.6-0.3,0.6-0.6c0-0.3-0.3-0.6-0.6-0.6c-0.3,0-0.6,0.3-0.6,0.6
	C156.5,190.5,156.8,190.7,157.1,190.7L157.1,190.7z"/>
<path class="st1" d="M178.3,177.8c0.2,0,0.4-0.2,0.4-0.4c0-0.2-0.2-0.4-0.4-0.4c-0.2,0-0.4,0.2-0.4,0.4
	C177.9,177.6,178.1,177.8,178.3,177.8L178.3,177.8z"/>
<path class="st1" d="M178.9,186.2c0.2,0,0.4-0.2,0.4-0.4c0-0.2-0.2-0.4-0.4-0.4c-0.2,0-0.4,0.2-0.4,0.4
	C178.5,186,178.7,186.2,178.9,186.2L178.9,186.2z"/>
<path class="st1" d="M182.9,202.1c0.5,0,0.9-0.4,0.9-0.9c0-0.5-0.4-0.9-0.9-0.9c-0.5,0-0.9,0.4-0.9,0.9
	C182,201.7,182.4,202.1,182.9,202.1L182.9,202.1z"/>
<path class="st1" d="M183.8,174.2c0.5,0,0.9-0.4,0.9-0.9c0-0.5-0.4-0.9-0.9-0.9c-0.5,0-0.9,0.4-0.9,0.9
	C182.8,173.8,183.3,174.2,183.8,174.2L183.8,174.2z"/>
<path class="st1" d="M184,179.4c0.3,0,0.5-0.2,0.5-0.5c0-0.3-0.2-0.5-0.5-0.5c-0.3,0-0.5,0.2-0.5,0.5
	C183.6,179.2,183.8,179.4,184,179.4L184,179.4z"/>
<path class="st1" d="M192.6,169.6c0.3,0,0.5-0.2,0.5-0.5c0-0.3-0.2-0.5-0.5-0.5c-0.3,0-0.5,0.2-0.5,0.5
	C192.2,169.4,192.4,169.6,192.6,169.6L192.6,169.6z"/>
<path class="st1" d="M201.1,179.2c0.3,0,0.6-0.3,0.6-0.6c0-0.3-0.3-0.6-0.6-0.6c-0.3,0-0.6,0.3-0.6,0.6
	C200.5,179,200.7,179.2,201.1,179.2L201.1,179.2z"/>
<path class="st1" d="M204.8,177.4c0.4,0,0.8-0.3,0.8-0.8c0-0.4-0.3-0.8-0.8-0.8s-0.8,0.3-0.8,0.8
	C204.1,177.1,204.4,177.4,204.8,177.4L204.8,177.4z"/>
<path class="st1" d="M194,185.5c0.4,0,0.7-0.3,0.7-0.7c0-0.4-0.3-0.7-0.7-0.7c-0.4,0-0.7,0.3-0.7,0.7
	C193.3,185.2,193.6,185.5,194,185.5L194,185.5z"/>
<path class="st1" d="M201.8,189.1c0.2,0,0.4-0.2,0.4-0.4c0-0.2-0.2-0.4-0.4-0.4c-0.2,0-0.4,0.2-0.4,0.4
	C201.4,188.9,201.6,189.1,201.8,189.1L201.8,189.1z"/>
<path class="st1" d="M152.6,90.4c0.5,0,0.9-0.4,0.9-0.9c0-0.5-0.4-0.9-0.9-0.9c-0.5,0-0.9,0.4-0.9,0.9
	C151.6,90,152.1,90.4,152.6,90.4L152.6,90.4z"/>
<path class="st1" d="M148.9,80.7c0.3,0,0.5-0.2,0.5-0.5c0-0.3-0.2-0.5-0.5-0.5c-0.3,0-0.5,0.2-0.5,0.5
	C148.4,80.5,148.6,80.7,148.9,80.7L148.9,80.7z"/>
<path class="st1" d="M148,92.6c0.2,0,0.3-0.1,0.3-0.3c0-0.2-0.1-0.3-0.3-0.3c-0.2,0-0.3,0.1-0.3,0.3C147.7,92.5,147.9,92.6,148,92.6
	L148,92.6z"/>
<path class="st1" d="M133.6,94c0.4,0,0.7-0.3,0.7-0.7c0-0.4-0.3-0.7-0.7-0.7c-0.4,0-0.7,0.3-0.7,0.7C133,93.7,133.3,94,133.6,94
	L133.6,94z"/>
<path class="st1" d="M132.4,92.5c0.2,0,0.3-0.1,0.3-0.3c0-0.2-0.1-0.3-0.3-0.3c-0.2,0-0.3,0.1-0.3,0.3
	C132.1,92.4,132.2,92.5,132.4,92.5L132.4,92.5z"/>
<path class="st1" d="M162.3,106.3c0.4,0,0.6-0.3,0.6-0.6c0-0.4-0.3-0.6-0.6-0.6c-0.4,0-0.6,0.3-0.6,0.6
	C161.6,106,161.9,106.3,162.3,106.3L162.3,106.3z"/>
<path class="st1" d="M144,88.4c0.5,0,0.9-0.4,0.9-0.9c0-0.5-0.4-0.9-0.9-0.9c-0.5,0-0.9,0.4-0.9,0.9C143.1,87.9,143.5,88.4,144,88.4
	L144,88.4z"/>
<path class="st1" d="M120.5,108.8c0.4,0,0.6-0.3,0.6-0.6c0-0.4-0.3-0.6-0.6-0.6c-0.4,0-0.6,0.3-0.6,0.6
	C119.8,108.5,120.1,108.8,120.5,108.8L120.5,108.8z"/>
<path class="st1" d="M122.4,112.1c0.4,0,0.6-0.3,0.6-0.6c0-0.4-0.3-0.6-0.6-0.6c-0.4,0-0.6,0.3-0.6,0.6
	C121.8,111.8,122.1,112.1,122.4,112.1L122.4,112.1z"/>
<path class="st1" d="M128.1,119.4c0.2,0,0.3-0.1,0.3-0.3c0-0.2-0.1-0.3-0.3-0.3c-0.2,0-0.3,0.1-0.3,0.3
	C127.8,119.3,127.9,119.4,128.1,119.4L128.1,119.4z"/>
<path class="st1" d="M135.2,94.6c0.2,0,0.3-0.1,0.3-0.3s-0.1-0.3-0.3-0.3c-0.2,0-0.3,0.1-0.3,0.3S135.1,94.6,135.2,94.6L135.2,94.6z
	"/>
<path class="st1" d="M134.4,98.3c0.3,0,0.5-0.2,0.5-0.5c0-0.3-0.2-0.5-0.5-0.5c-0.3,0-0.5,0.2-0.5,0.5
	C133.8,98,134.1,98.3,134.4,98.3L134.4,98.3z"/>
<path class="st1" d="M145.2,94.6c0.3,0,0.5-0.2,0.5-0.5c0-0.3-0.2-0.5-0.5-0.5c-0.3,0-0.5,0.2-0.5,0.5
	C144.7,94.3,144.9,94.6,145.2,94.6L145.2,94.6z"/>
<path class="st1" d="M151.8,98.5c0.3,0,0.5-0.2,0.5-0.5c0-0.3-0.2-0.5-0.5-0.5c-0.3,0-0.5,0.2-0.5,0.5
	C151.3,98.3,151.5,98.5,151.8,98.5L151.8,98.5z"/>
<path class="st1" d="M196.2,189.9c0.6,0,1.1-0.5,1.1-1.1s-0.5-1.1-1.1-1.1c-0.6,0-1.1,0.5-1.1,1.1S195.6,189.9,196.2,189.9
	L196.2,189.9z"/>
<polygon class="st1" points="195.5,187.8 196.2,185.9 196.9,187.8 195.5,187.8 "/>
<polygon class="st1" points="195.5,189.6 196.2,191.6 196.9,189.7 195.5,189.6 "/>
<polygon class="st1" points="195.3,189.5 193.3,188.8 195.3,188.2 195.3,189.5 "/>
<polygon class="st1" points="197.1,189.5 199.1,188.8 197.2,188.2 197.1,189.5 "/>
<path class="st1" d="M194.1,174c0.4,0,0.7-0.3,0.7-0.7c0-0.4-0.3-0.7-0.7-0.7c-0.4,0-0.7,0.3-0.7,0.7
	C193.4,173.7,193.7,174,194.1,174L194.1,174z"/>
<path class="st1" d="M170.4,204.1c0.4,0,0.7-0.3,0.7-0.7c0-0.4-0.3-0.7-0.7-0.7c-0.4,0-0.7,0.3-0.7,0.7
	C169.6,203.7,170,204.1,170.4,204.1L170.4,204.1z"/>
<path class="st1" d="M143,196c0.4,0,0.7-0.3,0.7-0.7c0-0.4-0.3-0.7-0.7-0.7c-0.4,0-0.7,0.3-0.7,0.7C142.3,195.7,142.6,196,143,196
	L143,196z"/>
<path class="st1" d="M117.3,196.2c0.4,0,0.7-0.3,0.7-0.7c0-0.4-0.3-0.7-0.7-0.7c-0.4,0-0.7,0.3-0.7,0.7
	C116.6,195.9,116.9,196.2,117.3,196.2L117.3,196.2z"/>
<path class="st1" d="M120.3,179.4c0.3,0,0.5-0.2,0.5-0.5c0-0.3-0.2-0.5-0.5-0.5c-0.3,0-0.5,0.2-0.5,0.5
	C119.8,179.2,120,179.4,120.3,179.4L120.3,179.4z"/>
<path class="st1" d="M111.5,185.5c0.3,0,0.5-0.2,0.5-0.5c0-0.3-0.2-0.5-0.5-0.5c-0.3,0-0.5,0.2-0.5,0.5
	C111,185.3,111.2,185.5,111.5,185.5L111.5,185.5z"/>
<path class="st1" d="M122.1,165.4c0.3,0,0.5-0.2,0.5-0.5c0-0.3-0.2-0.5-0.5-0.5c-0.3,0-0.5,0.2-0.5,0.5
	C121.6,165.2,121.8,165.4,122.1,165.4L122.1,165.4z"/>
<path class="st1" d="M91.7,179.6c0.3,0,0.5-0.2,0.5-0.5c0-0.3-0.2-0.5-0.5-0.5c-0.3,0-0.5,0.2-0.5,0.5
	C91.2,179.4,91.5,179.6,91.7,179.6L91.7,179.6z"/>
<path class="st1" d="M99.9,180.4c0.3,0,0.5-0.2,0.5-0.5c0-0.3-0.2-0.5-0.5-0.5c-0.3,0-0.5,0.2-0.5,0.5
	C99.4,180.2,99.6,180.4,99.9,180.4L99.9,180.4z"/>
<path class="st1" d="M98.3,184.4c0.5,0,0.9-0.4,0.9-0.9c0-0.5-0.4-0.9-0.9-0.9c-0.5,0-0.9,0.4-0.9,0.9
	C97.5,184,97.8,184.4,98.3,184.4L98.3,184.4z"/>
<path class="st1" d="M101.2,187.7c0.5,0,0.9-0.4,0.9-0.9c0-0.5-0.4-0.9-0.9-0.9c-0.5,0-0.9,0.4-0.9,0.9
	C100.3,187.3,100.7,187.7,101.2,187.7L101.2,187.7z"/>
<path class="st2" d="M214.2,104.2C227.8,93,239,83.4,243,76.1c0,0-8.6,28.9-49,59.1c0,0-61.6,42.1-78.5,53.9c0,0-15.5,11-28.7,28
	l-0.3-2.8c0,0,9.9-14.5,32.4-30.4c19.8-14,27.2-18.7,27.2-18.7s47-29.4,56.7-42.2c0,0-33.7,19.4-91.9,30.6c0,0-26.9,6.8-44.5,17.8
	H64c0,0,15.3-13,50.9-23.2C114.9,148.1,175.1,130.2,214.2,104.2L214.2,104.2z"/>
<polygon class="st1" points="84.2,133.4 96.4,133.4 106.8,151 106.8,135.6 104.9,133.4 112.5,133.4 110.6,136.4 110.6,159.2 
	113.4,162.3 101.2,162.3 90.8,144.3 90.8,159.3 93.1,162.3 83.9,162.3 86.5,159.1 86.5,136.9 84.2,133.4 "/>
<polygon class="st1" points="124.7,133.4 138.2,133.4 147.8,158.9 151.2,162.3 134,162.3 136.9,159.4 135.4,155.6 125.8,155.6 
	125.2,159.6 127.2,162.3 118.1,162.3 121.4,159.4 128.1,137 124.7,133.4 "/>
<polygon class="st0" points="134.1,151.6 130,141.7 126.9,151.6 134.1,151.6 "/>
<polygon class="st2" points="129.5,143.4 130.6,143 132.8,148.6 127.4,149.9 129.5,143.4 "/>
<path class="st3" d="M161.6,188.7c4.5,2.6,8.8,4.3,12.5,4.8c3.6,0.5,6.7-0.1,9-1.8c0.3-0.2,0.6-0.5,0.9-0.7
	c10.8-10.3-2.1-44.3-22.2-65.4l0,0c0,0-1.9-2.2-3.1-3.4l0.7-0.7c1.2,1.2,3,3.2,3.2,3.5c0,0,0,0,0,0c0,0,0,0,0,0l0,0
	c20.4,21.4,33.3,56.1,22.1,66.7c-0.3,0.3-0.6,0.5-0.9,0.8c-2.5,1.9-5.8,2.5-9.7,2c-3.9-0.5-8.3-2.2-12.9-4.9L161.6,188.7
	L161.6,188.7z M162.5,125C162.5,125,162.5,125,162.5,125L162.5,125L162.5,125z"/>
<path class="st3" d="M160.8,124.6c-0.2-0.2-0.3-0.4-0.4-0.5h0c-0.2-0.2-0.3-0.4-0.5-0.5c-9.7-11.2-18.1-18.1-25.2-21.6
	c-8.3-4.2-14.7-3.9-19.3-1c-4,2.5-5.5,9.7-2.8,20.8c2.3,9.4,7.5,21.4,16.7,35.6l0,0c0,0,8.5,11.7,9.4,12.4l-0.6,0.9
	c-1.1-0.8-9.6-12.6-9.6-12.6l0,0c-9.3-14.3-14.6-26.5-16.9-36c-2.8-11.6-1.1-19.2,3.3-22c4.9-3.1,11.7-3.4,20.3,0.9
	c7.2,3.6,15.7,10.5,25.5,21.9c0.2,0.2,0.3,0.4,0.5,0.5h0c0.2,0.2,0.3,0.4,0.5,0.5L160.8,124.6L160.8,124.6z"/>
<path class="st1" d="M143.9,178.9c2.1,1.8,4.4,2.6,5.2,1.7c0.7-0.9-0.4-3.1-2.5-4.9c-2.1-1.8-4.4-2.6-5.2-1.7
	C140.6,174.9,141.7,177.1,143.9,178.9L143.9,178.9z"/>
<path class="st1" d="M163.7,90.7c0.8,0,1.4-0.6,1.4-1.4c0-0.8-0.6-1.4-1.4-1.4c-0.8,0-1.4,0.6-1.4,1.4
	C162.2,90,162.9,90.7,163.7,90.7L163.7,90.7z"/>
<polygon class="st1" points="162.8,88 163.7,83 164.5,88 162.8,88 "/>
<polygon class="st1" points="162.8,90.3 163.7,95.4 164.5,90.3 162.8,90.3 "/>
<polygon class="st1" points="162.5,90.1 157.2,89.2 162.5,88.5 162.5,90.1 "/>
<polygon class="st1" points="164.8,90.1 170.3,89.2 164.8,88.5 164.8,90.1 "/>
<path class="st1" d="M128.4,110.9c0.8,0,1.4-0.6,1.4-1.4c0-0.8-0.6-1.4-1.4-1.4c-0.8,0-1.4,0.6-1.4,1.4
	C127,110.3,127.7,110.9,128.4,110.9L128.4,110.9z"/>
<polygon class="st1" points="127.6,108.3 128.5,103.3 129.3,108.3 127.6,108.3 "/>
<polygon class="st1" points="127.6,110.6 128.5,115.6 129.3,110.6 127.6,110.6 "/>
<polygon class="st1" points="127.3,110.4 122,109.5 127.3,108.7 127.3,110.4 "/>
<polygon class="st1" points="129.6,110.4 135.1,109.5 129.6,108.7 129.6,110.4 "/>
<path class="st1" d="M120.5,206.3c0.8,0,1.4-0.6,1.4-1.4c0-0.8-0.6-1.4-1.4-1.4c-0.8,0-1.4,0.6-1.4,1.4
	C119.1,205.7,119.7,206.3,120.5,206.3L120.5,206.3z"/>
<polygon class="st1" points="119.6,203.7 120.5,198.7 121.3,203.7 119.6,203.7 "/>
<polygon class="st1" points="119.6,206 120.5,211 121.3,206 119.6,206 "/>
<polygon class="st1" points="119.3,205.8 114.1,204.9 119.3,204.1 119.3,205.8 "/>
<polygon class="st1" points="121.6,205.8 127.1,204.9 121.7,204.1 121.6,205.8 "/>
<path class="st1" d="M203.2,173.8c0.8,0,1.4-0.6,1.4-1.4c0-0.8-0.6-1.4-1.4-1.4c-0.8,0-1.4,0.6-1.4,1.4
	C201.7,173.1,202.4,173.8,203.2,173.8L203.2,173.8z"/>
<polygon class="st1" points="202.3,171.2 203.2,166.1 204,171.1 202.3,171.2 "/>
<polygon class="st1" points="202.3,173.4 203.2,178.5 204,173.4 202.3,173.4 "/>
<polygon class="st1" points="202,173.2 196.7,172.3 202,171.6 202,173.2 "/>
<polygon class="st1" points="204.3,173.2 209.8,172.3 204.3,171.6 204.3,173.2 "/>
<path class="st1" d="M170.1,144c0,0,11.4,3.5,7.6,13.3c0,0-4.9,10-19.6,5.1l-3,2.7l-0.1-9.5l4.3,3.2c0,0,9.8,2.7,10-3
	c0,0-0.5-2.1-8-4.4c0,0-8.8-2.7-6.8-10.4c0,0,1.4-12,18.8-7.2l3-1.6l0,9.2l-3.8-3.7c0,0-7.9-2.5-9,1.3
	C162.1,143.2,167.2,142.9,170.1,144L170.1,144z"/>
<path class="st1" d="M214.3,162.2l-3.5-3.4l-10.6-25.5h-13.1l3.3,3.6l-7,22.4l-2.9,2.9h8.5l-2-2.7l1.1-4h9.6l1.5,3.8l-2.9,2.9H214.3
	z M189.3,151.5l3.1-9.9l4.1,9.9H189.3z"/>
</svg>
